<svg width="44" height="44" viewBox="0 0 44 44" fill="none" xmlns="http://www.w3.org/2000/svg">
<circle cx="21.8" cy="22.4" r="21.6" fill="black"/>
<path d="M8.71685 16.5481C11.2222 17.9325 13.6629 19.2796 16.2105 20.6839C17.7987 18.1363 19.3794 15.5987 21.1242 12.8C22.8889 15.5589 24.4995 18.0767 26.1647 20.6839C28.6502 19.2846 31.0785 17.9176 33.7975 16.3866C33.4521 18.0145 33.1836 19.3268 32.8953 20.6342C32.4579 22.6126 31.9906 24.5836 31.5681 26.567C31.4339 27.2008 31.1481 27.4344 30.477 27.4319C24.2261 27.4145 17.9752 27.4418 11.7242 27.412C11.3912 27.412 10.8295 27.0541 10.7624 26.7708C9.99934 23.5546 9.30839 20.321 8.605 17.0899C8.58264 16.9856 8.64974 16.8613 8.71685 16.5506V16.5481Z" fill="white"/>
<path d="M11.0184 29.5271H31.1804C31.3195 30.4642 31.0536 30.8544 30.0818 30.8494C24.1242 30.8171 18.1665 30.8171 12.2114 30.8494C11.3141 30.8544 11.0457 30.4716 11.0184 29.5247V29.5271Z" fill="white"/>
</svg>
