<svg xmlns="http://www.w3.org/2000/svg" width="79" height="84" viewBox="0 0 79 84"><defs><style>      .cls-1 {        fill: #fff;      }      .cls-1, .cls-2 {        fill-rule: evenodd;      }    </style></defs><path id="Color_Fill_2" data-name="Color Fill 2" class="cls-1" d="M79,29.275l-0.979.209v0.07l-0.489.069v0.07h-0.14v0.07l-0.419.069V29.9h-0.14V29.97l-0.35.07v0.07l-0.419.139v0.07h-0.14v0.069l-0.419.139-0.07.139-0.28.069-0.07.139-0.28.07-0.07.139H74.6l-0.14.209h-0.14l-0.07.139h-0.14l-0.14.209h-0.14l-0.28.348h-0.14l-0.629.7-0.839.765v0.139l-0.28.209v0.139l-0.21.139v0.139l-0.21.139V34.49l-0.14.07V34.7l-0.14.069v0.139l-0.14.069-0.07.209h-0.07l-0.07.278-0.14.069v0.139H70.4v0.139h-0.07V35.95h-0.07v0.139h-0.07v0.139h-0.07v0.139h-0.07l-0.14.417h-0.07v0.209h-0.07v0.139H69.7v0.209h-0.07V37.48h-0.07l-0.07.417h-0.07v0.209h-0.07v0.209h-0.07v0.209h-0.07l-0.07.556a10.26,10.26,0,0,0-.419,3.129V43.46h0.07v0.626l0.419,2.086h0.07v0.209h0.07v0.209h0.07V46.8h0.07v0.209h0.07l0.07,0.417H69.7l0.07,0.278h0.07v0.209h0.07l0.14,0.417h0.07v0.139h0.07v0.139h0.07v0.139h0.07v0.139H70.4v0.139h0.07v0.139l0.14,0.069,0.07,0.278,0.14,0.07,0.07,0.278h0.07l0.07,0.209,0.14,0.07v0.139l0.21,0.139v0.139l0.21,0.139v0.139l0.28,0.209v0.139l0.559,0.487V51.8l0.35,0.278,0.07,0.139h0.14l0.489,0.556h0.14l0.21,0.278h0.14l0.07,0.139h0.07l0.07,0.139h0.14l0.07,0.139h0.14l0.07,0.139h0.14l0.07,0.139h0.14l0.07,0.139,0.28,0.07,0.07,0.139,0.419,0.139v0.069h0.14v0.07h0.14v0.07H76.2v0.07l0.419,0.139v0.07h0.21v0.069l0.28,0.069v0.07l1.678,0.487-0.419,1.391H78.3V56.95h-0.07l-0.07.417h-0.07v0.139h-0.07v0.209h-0.07v0.209h-0.07v0.139h-0.07v0.209h-0.07v0.139h-0.07v0.209H77.6l-0.07.278h-0.07v0.209h-0.07l-0.07.278h-0.07v0.209h-0.07v0.139h-0.07l-0.14.417H76.9v0.209h-0.07V60.5h-0.07l-0.07.278h-0.07l-0.07.278h-0.07v0.139h-0.07v0.139h-0.07V61.47h-0.07v0.139H76.2v0.139h-0.07v0.139h-0.07v0.139h-0.07v0.139h-0.07V62.3h-0.07v0.139h-0.07v0.139l-0.14.069v0.139h-0.07v0.139H75.5V63.07h-0.07v0.139l-0.14.07-0.14.417-0.14.069V63.9h-0.07v0.139h-0.07v0.139h-0.07l-0.07.209-0.14.07V64.6h-0.07v0.139l-0.14.07-0.07.278-0.14.07v0.139l-0.14.069V65.5l-0.14.07v0.139h-0.07l-0.07.209-0.14.07v0.139l-0.14.07v0.139l-0.14.07v0.139h-0.07l-0.07.209-0.14.07v0.139l-0.14.07-0.07.209-0.21.139V67.52l-0.14.069v0.139l-0.14.07-0.07.209-0.21.139v0.139l-0.28.209v0.139l-0.28.209V68.98l-0.28.209v0.139l-0.35.278v0.139l-0.35.278v0.139l-0.559.487v0.139l-0.839.765v0.139l-0.7.626-0.629.7h-0.14l-0.839.9H66.7l-0.419.487h-0.14l-0.28.348h-0.14l-0.28.348H65.3l-0.21.278h-0.14l-0.21.278H64.6l-0.21.278h-0.14l-0.14.209-0.21.07-0.07.139h-0.14l-0.07.139H63.48l-0.14.209H63.2l-0.07.139H62.99l-0.14.209h-0.14l-0.07.139-0.21.07v0.07h-0.14l-0.07.139h-0.14l-0.07.139h-0.14l-0.07.139h-0.14l-0.07.139-0.28.07v0.07l-0.21.069-0.07.139-0.28.07-0.07.139-0.28.07-0.07.139-0.419.139-0.07.139-0.28.07v0.07h-0.14l-0.07.139h-0.14v0.07h-0.14v0.07h-0.14v0.07H58.8V79.48h-0.14v0.07l-0.28.07-0.07.139-0.28.069V79.9l-0.419.139v0.07H57.4v0.07h-0.14v0.07h-0.14v0.07h-0.14v0.07l-0.419.139v0.069h-0.21v0.07h-0.14v0.07h-0.14V80.8h-0.14v0.07H55.72V80.94H55.58v0.07H55.37v0.07l-0.28.07v0.07h-0.21v0.07h-0.14v0.07l-0.419.07V81.5h-0.14v0.069l-0.629.139v0.07h-0.14v0.07l-0.419.07v0.07h-0.21v0.07h-0.21v0.07h-0.21v0.07h-0.21v0.07h-0.28v0.07h-0.21V82.4h-0.21v0.07l-0.489.069v0.07l-0.769.139v0.07l-0.629.07v0.07h-0.28v0.07h-0.28V83.1h-0.35v0.07h-0.28v0.07h-0.35V83.3H47.61v0.07H47.26v0.07H46.841v0.069H46.421v0.07H45.932v0.069H45.373v0.07H44.813v0.069h-0.7v0.07l-2.1.07a10.9,10.9,0,0,1-3.076,0H37.682v-0.07H36.774v-0.07H36.144V83.722H35.515c-0.547-.159-1.282-0.188-1.818-0.348l-0.769-.07c-0.682-.214-1.51-0.333-2.167-0.556l-0.559-.07c-0.791-.284-1.686-0.532-2.447-0.834l-0.629-.139V81.636h-0.14v-0.07L26.566,81.5v-0.07h-0.14v-0.07h-0.21v-0.07h-0.14v-0.07l-0.35-.07V81.08h-0.21V81.01h-0.14V80.94h-0.21V80.871l-0.28-.07V80.732h-0.21v-0.07h-0.14v-0.07l-0.419-.139V80.384H23.91v-0.07H23.77v-0.07l-0.28-.07v-0.07H23.35v-0.07h-0.14v-0.07h-0.14V79.9h-0.14v-0.07h-0.14V79.758h-0.14v-0.07h-0.14V79.619h-0.14V79.55h-0.14V79.48h-0.14l-0.07-.139h-0.14v-0.07h-0.14V79.2H21.6v-0.07h-0.14v-0.07h-0.14l-0.07-.139-0.419-.139-0.07-.139-0.28-.07-0.07-.139-0.28-.07-0.07-.139-0.28-.07-0.07-.139h-0.14l-0.07-.139h-0.14l-0.07-.139-0.28-.069V77.6l-0.21-.069-0.07-.139H18.6v-0.07l-0.21-.07-0.07-.139h-0.14l-0.14-.209H17.9l-0.07-.139h-0.14l-0.14-.209h-0.14l-0.07-.139H17.2l-0.07-.139-0.21-.07L16.779,76h-0.14l-0.21-.278-0.21-.07-0.07-.139H16.01l-0.21-.278H15.66l-0.28-.348h-0.14l-0.28-.348h-0.14l-0.349-.417h-0.14l-0.629-.7h-0.14l-0.7-.765a12.94,12.94,0,0,1-1.468-1.53l-0.7-.626V70.371l-0.42-.348V69.884l-0.419-.348V69.4l-0.28-.209V69.05L9.3,68.841V68.7l-0.28-.209V68.354l-0.21-.139V68.076L8.6,67.937V67.8l-0.21-.139V67.52l-0.21-.139V67.242l-0.14-.069V67.033l-0.21-.139V66.755l-0.14-.07V66.546H7.62l-0.07-.209-0.14-.07V66.129L7.2,65.99l-0.07-.278-0.14-.07V65.5l-0.14-.069V65.295l-0.14-.07V65.086l-0.14-.07V64.878H6.5V64.738l-0.14-.07-0.07-.278-0.14-.069-0.07-.278-0.14-.07L5.873,63.7l-0.14-.07-0.14-.417-0.14-.069V63H5.383V62.861H5.313V62.722H5.243V62.583H5.173V62.444l-0.14-.069V62.235H4.964V62.1H4.894V61.957H4.824V61.818H4.754V61.679H4.684V61.54H4.614V61.4H4.544V61.262H4.474V61.123H4.4V60.983H4.335l-0.14-.417H4.125V60.358H4.055V60.219H3.985V60.08H3.915L3.845,59.8H3.775V59.593H3.705V59.454H3.635l-0.07-.278H3.5V58.967H3.426l-0.07-.348H3.286l-0.07-.278H3.146V58.133H3.076V57.993H3.006l-0.07-.417H2.866V57.437H2.8l-1.328-4.1L0.559,49.093l-0.14-1.46H0.35V47.076H0.28V46.45H0.21V45.685H0.14V44.712H0.07v-1.6A9.249,9.249,0,0,1,0,40.887c0.123-.428-0.056-1.164.07-1.6H0.14V38.315H0.21V37.55H0.28V36.924H0.35V36.3c0.16-.544.189-1.275,0.35-1.808V34.073c0.156-.5.26-1.176,0.419-1.669V32.056h0.07l0.07-.556h0.07l0.07-.556h0.07l0.07-.556h0.07V30.179h0.07l0.07-.487h0.07V29.414h0.07V29.205h0.07V29h0.07V28.788H2.1V28.58h0.07V28.3h0.07l0.07-.417h0.07V27.745h0.07l0.07-.417h0.07l0.07-.417h0.07V26.772H2.8V26.563h0.07V26.354h0.07V26.215h0.07V26.007h0.07l0.07-.348h0.07V25.52h0.07V25.311h0.07l0.07-.278H3.5V24.825h0.07l0.07-.278h0.07V24.338h0.07l0.07-.278h0.07l0.07-.348h0.07l0.14-.417h0.07V23.156h0.07V23.017H4.4V22.878h0.07V22.738h0.07l0.07-.278h0.07l0.07-.278h0.07V22.043h0.07V21.9h0.07V21.765h0.07V21.626H5.1l0.07-.278,0.14-.07V21.139h0.07V21h0.07V20.861h0.07V20.722l0.14-.07,0.14-.417,0.14-.069,0.07-.278,0.14-.069,0.07-.278,0.14-.07,0.07-.278H6.5l0.07-.209,0.14-.069,0.07-.278h0.07l0.07-.209,0.14-.07V18.219l0.14-.069V18.01l0.14-.069V17.8h0.07l0.07-.209,0.14-.07V17.384l0.21-.139V17.106H7.9L7.97,16.9l0.14-.07V16.689l0.21-.139V16.411l0.21-.139V16.133l0.21-.139V15.854l0.21-.139V15.576l0.14-.07v-0.07l0.14-.07V15.229l0.28-.209V14.881l0.14-.07v-0.07l0.14-.069V14.533l0.35-.278V14.116l0.419-.348a17.03,17.03,0,0,1,1.888-2.017l1.328-1.391h0.14l0.559-.626h0.14l0.35-.417H15.1l0.28-.348h0.14l0.21-.278h0.14l0.21-.278h0.14l0.21-.278h0.14l0.14-.209h0.14l0.14-.209h0.14l0.14-.209h0.14l0.07-.139h0.14l0.14-.209H17.9l0.07-.139h0.14V6.954l0.21-.07,0.07-.139h0.14l0.14-.209,0.28-.07,0.07-.139h0.14l0.07-.139h0.14l0.07-.139h0.14l0.07-.139h0.14V5.841h0.14l0.07-.139,0.28-.07,0.07-.139,0.28-.07,0.07-.139,0.28-.07,0.07-.139h0.14V5.007h0.14V4.937h0.14V4.868H21.6l0.07-.139,1.119-.487V4.172l0.28-.07V4.033l0.28-.07V3.894h0.14V3.825h0.14V3.755h0.14V3.685h0.14V3.616l0.28-.07V3.477h0.14V3.407h0.21V3.338h0.14V3.268l0.28-.07V3.129h0.21V3.06h0.14V2.99h0.21V2.921l0.28-.07V2.781h0.21V2.712h0.14V2.642l0.42-.07V2.5h0.14V2.434l3.705-1.182,0.559-.07c0.784-.265,1.772-0.38,2.587-0.626h0.419c0.576-.17,1.366-0.179,1.958-0.348h0.7V0.139H37.4V0.07h1.118A9.235,9.235,0,0,1,40.549,0a8.45,8.45,0,0,1,1.888.07h1.049v0.07h0.839v0.07h0.629v0.07h0.559v0.07h0.559C46.685,0.528,47.5.577,48.1,0.765h0.35v0.07H48.8V0.9h0.28v0.07h0.28v0.07l0.629,0.07,3.286,0.974v0.07h0.14v0.07l0.629,0.139v0.07h0.14V2.5l0.42,0.07v0.07l0.349,0.07v0.07h0.14v0.07H55.3v0.07l0.28,0.07V3.06h0.21v0.07l0.28,0.07v0.07h0.21v0.07l0.28,0.07v0.07H56.7v0.07h0.14v0.07h0.21v0.07l0.419,0.139v0.07h0.14v0.07h0.14v0.07h0.14V4.1h0.14v0.07h0.14v0.07h0.14v0.07h0.14v0.07h0.14V4.45h0.14V4.52h0.14l0.07,0.139h0.14v0.07h0.14V4.8h0.14v0.07h0.14v0.07h0.14L59.7,5.076l0.419,0.139,0.07,0.139,0.28,0.07,0.07,0.139,0.28,0.07,0.07,0.139h0.14v0.07h0.14l0.07,0.139h0.14l0.07,0.139h0.14l0.07,0.139,0.28,0.07V6.4l0.21,0.07,0.07,0.139h0.14l0.07,0.139h0.14l0.14,0.209h0.14v0.07l0.21,0.07,0.07,0.139h0.14L63.41,7.44h0.14l0.14,0.209h0.14L63.9,7.788h0.14l0.21,0.278h0.14l0.14,0.209h0.14l0.21,0.278,0.21,0.07,0.07,0.139H65.3l0.28,0.348h0.14l0.14,0.209,0.21,0.139v0.07h0.14l0.35,0.417H66.7l0.7,0.765h0.14l0.559,0.626,1.328,1.252v0.139l0.7,0.626V13.49l0.489,0.417v0.139l0.35,0.278v0.139l0.35,0.278v0.139l0.28,0.209v0.139l0.14,0.069v0.069l0.14,0.07v0.139l0.21,0.139v0.139l0.21,0.139v0.139l0.21,0.139v0.139l0.21,0.139,0.07,0.209,0.14,0.07v0.139h0.07l0.07,0.209,0.14,0.07v0.139l0.21,0.139v0.139l0.14,0.07v0.139l0.14,0.07V18.08l0.14,0.07v0.139l0.14,0.07,0.07,0.278,0.14,0.07v0.139l0.14,0.07v0.139l0.14,0.069,0.07,0.278,0.14,0.069,0.07,0.278,0.14,0.07,0.07,0.278,0.14,0.07,0.14,0.417,0.14,0.07v0.139h0.07v0.139H75.5V21.07h0.07v0.139l0.14,0.069v0.139h0.07v0.139h0.07V21.7h0.07v0.139h0.07v0.139h0.07v0.139h0.07v0.139H76.2l0.07,0.278h0.07l0.07,0.278h0.07v0.139h0.07v0.139h0.07v0.139h0.07v0.139h0.07l0.07,0.278H76.9v0.139h0.07V23.99h0.07v0.139h0.07l0.14,0.417h0.07v0.209h0.07v0.139h0.07V25.1h0.07l0.07,0.278h0.07v0.209h0.07v0.139h0.07l0.07,0.348h0.07v0.209h0.07v0.139h0.07l0.07,0.417h0.07V26.98H78.3v0.209h0.07V27.4h0.07v0.209h0.07v0.209h0.07v0.209A4.924,4.924,0,0,1,79,29.275ZM49.078,32.752a2.752,2.752,0,0,0,.14.556h0.07v0.139h0.07l0.14,0.626h0.07v0.139h0.07l0.14,0.626h0.07v0.139h0.07l0.14,0.626h0.07v0.139H50.2l0.14,0.626h0.07v0.139h0.07l0.07,0.417h0.07v0.139h0.07l0.07,0.417a2.605,2.605,0,0,1,.28.765h0.14a1.8,1.8,0,0,1,.28-0.556l0.07-.348h0.07l0.14-.417H51.8V36.785h0.07V36.646h0.07V36.437h0.07l0.14-.417h0.07V35.881h0.07V35.742h0.07V35.533h0.07l0.14-.417h0.07V34.977h0.07V34.838h0.07V34.629h0.07l0.14-.417h0.07V34.073h0.07V33.934H53.2V33.725h0.07l0.14-.417h0.07V33.169h0.07l0.07-.278h0.07V32.682h0.07l0.14-.417h0.07V32.126h0.07V31.987h0.07l0.21-.626h0.07l0.21-.626h-0.07l-0.14-.626h-0.07V29.97h-0.07l-0.14-.626h-0.07V29.205h-0.07l-0.14-.626h-0.07V28.44h-0.07l-0.14-.626h-0.07V27.676h-0.07l-0.14-.626H53.2V26.911h-0.07l-0.14-.626h-0.07V26.146h-0.07a2.213,2.213,0,0,0-.35-0.9l-7.76,2.851-3.5,7.44h0.21V35.464l0.35-.07V35.325h0.21V35.255h0.21v-0.07h0.14V35.116L43,34.977V34.907h0.14v-0.07l0.629-.139v-0.07H43.9V34.56l0.629-.139V34.351h0.14V34.282l0.629-.139v-0.07h0.14V34l0.629-.139V33.795h0.14V33.725l0.629-.139v-0.07h0.14v-0.07Zm-12.3,16.063L33.068,38.593l-7.55-3.546v0.139h0.07l0.07,0.417h0.07v0.139H25.8l0.14,0.626h0.07v0.139h0.07l0.14,0.626h0.07v0.139h0.07l0.07,0.417H26.5V37.9h0.07v0.139h0.07l0.07,0.417h0.07v0.209h0.07V38.8h0.07l0.07,0.417h0.07v0.209h0.07v0.139H27.2l0.07,0.417h0.07v0.209h0.07v0.139h0.07l0.14,0.626h0.07V41.1h0.07l0.14,0.626h0.07v0.139h0.07l0.07,0.417h0.07v0.209h0.07v0.139h0.07v0.209h0.07l0.07,0.417h0.07v0.139h0.07l0.07,0.417h0.07v0.209H28.8v0.139h0.07l0.07,0.417h0.07v0.209h0.07v0.139h0.07l0.07,0.417h0.07a0.558,0.558,0,0,0,.28.139v0.07h0.14v0.07h0.14v0.069h0.14v0.07l0.28,0.069v0.069h0.21v0.07l0.28,0.069V46.1l0.419,0.139v0.07h0.14v0.069h0.21V46.45h0.14v0.07h0.14v0.069l0.419,0.139V46.8h0.21v0.069l0.28,0.07v0.069l0.419,0.139v0.07h0.14v0.07h0.21v0.07h0.14v0.069h0.14v0.07h0.14v0.069L34.327,47.7v0.07h0.21v0.07h0.14v0.07h0.14V47.98h0.14v0.07l0.419,0.139v0.07h0.21v0.07h0.14V48.4h0.14v0.07H36v0.069Zm5.663,7.44h0.14a2.2,2.2,0,0,1,.42-0.9V55.212h0.07V55.073h0.07V54.864h0.07V54.725h0.07V54.586h0.07V54.447h0.07V54.308h0.07V54.169h0.07V54.03h0.07l0.07-.348h0.07l0.14-.417h0.07V53.126h0.07l0.07-.278h0.07V52.639h0.07l0.14-.417h0.07V52.083h0.07V51.944H44.6l0.07-.278h0.07V51.457h0.07l0.14-.417h0.07V50.9h0.07V50.762h0.07l0.07-.278H45.3V50.275h0.07L45.443,50h0.07V49.858h0.07V49.719h0.07l0.14-.417h0.07V49.093h0.07V48.954H46a2.325,2.325,0,0,0-.35-1.113l-0.07-.417h-0.07V47.285h-0.07l-0.14-.626h-0.07V46.52h-0.07l-0.07-.417h-0.07V45.964h-0.07l-0.14-.626h-0.07V45.2h-0.07l-0.14-.626c-0.445-1.013-.813-2.185-1.258-3.2V41.166h-0.07l-0.07-.417h-0.07V40.609H43V40.4h-0.07l-0.07-.417h-0.07V39.844h-0.07l-0.14-.626h-0.07V39.08h-0.07l-0.14-.626h-0.07V38.315h-0.07l-0.14-.626h-0.07V37.55h-0.07l-0.14-.626h-0.07V36.785H41.6l-0.07-.417a3.824,3.824,0,0,1-.28-0.7h-0.07v0.07a1.018,1.018,0,0,0-.21.487H40.9v0.139h-0.07v0.139h-0.07v0.139h-0.07l-0.14.417h-0.07l-0.21.626H40.2l-0.14.417h-0.07v0.209H39.92l-0.07.278H39.78l-0.07.278H39.64l-0.07.278H39.5v0.209H39.43V39.5H39.36v0.139H39.29v0.139H39.22l-0.14.417h-0.07V40.4h-0.07V40.54h-0.07v0.139H38.8v0.139h-0.07l-0.14.417h-0.07v0.209h-0.07v0.139h-0.07v0.139h-0.07v0.139h-0.07l-0.14.417h-0.07v0.209h-0.07v0.139a1.436,1.436,0,0,0-.28.626h0.07l0.07,0.417h0.07v0.139h0.07v0.209h0.07v0.209H38.1v0.209h0.07v0.139h0.07l0.14,0.626h0.07v0.139h0.07l0.14,0.626h0.07V46.1H38.8l0.14,0.626c0.663,1.508,1.157,3.219,1.818,4.729l0.07,0.417H40.9v0.209h0.07v0.139h0.07v0.209h0.07v0.209h0.07v0.139h0.07l0.14,0.626h0.07v0.139h0.07l0.14,0.626h0.07v0.139h0.07l0.14,0.626h0.07v0.139h0.07l0.07,0.417A2.57,2.57,0,0,1,42.436,56.255ZM53.622,45.964V46.1l-6.851,2.434a0.627,0.627,0,0,1-.14.139v0.139h-0.07v0.139h-0.07v0.139h-0.07v0.139h-0.07v0.139h-0.07V49.51h-0.07L46,50.136h-0.07l-0.14.417h-0.07v0.209h-0.07V50.9h-0.07V51.04h-0.07v0.139h-0.07L45.3,51.6h-0.07V51.8h-0.07v0.139h-0.07v0.139h-0.07v0.139h-0.07l-0.14.417h-0.07v0.209h-0.07v0.139H44.6v0.139h-0.07v0.139h-0.07l-0.14.417h-0.07v0.209h-0.07l-0.14.417h-0.07v0.139H43.9v0.139h-0.07v0.139h-0.07v0.209h-0.07v0.139h-0.07l-0.419.974h0.14l14.681-5.354,3.5-7.51a2.348,2.348,0,0,1-.7-0.348h-0.14v-0.07h-0.21V42.7l-0.28-.07V42.556l-0.28-.069v-0.07l-0.28-.069v-0.07h-0.21v-0.07h-0.14V42.139h-0.14V42.07h-0.14V42h-0.14V41.931h-0.14v-0.07l-0.35-.069v-0.07l-0.419-.139v-0.07h-0.14V41.444l-0.28-.069V41.3h-0.21V41.235L56.908,41.1V41.027h-0.14V40.957h-0.14v-0.07h-0.21V40.818L56,40.679v-0.07h-0.14V40.54l-0.28-.07V40.4H55.37v-0.07l-0.419-.139v-0.07h-0.14v-0.07l-0.28-.07v-0.07h-0.21V39.844L53.9,39.705V39.636h-0.14v-0.07l-0.28-.07V39.427h-0.21v-0.07l-0.419-.139V39.149h-0.14V39.08l-0.28-.07V38.94h-0.21V38.871h-0.14V38.8h-0.14V38.732H51.8V38.662l-0.419-.139v-0.07h-0.21v-0.07a0.957,0.957,0,0,0-.559.209l-0.629.139V38.8h-0.14v0.07l-0.629.139v0.07h-0.14v0.069l-0.629.139v0.069h-0.14v0.07l-0.629.139v0.07H47.54v0.069l-0.419.069v0.07h-0.14v0.069l-0.629.139v0.07h-0.14v0.07l-0.629.139V40.4h-0.14V40.47l-0.629.139v0.07h-0.14v0.069l-0.629.139v0.07H43.9v0.069a3.086,3.086,0,0,1-.559.139v0.07h0.07V41.3l0.35,0.07v0.069H43.9v0.069h0.14v0.07h0.14v0.069h0.14v0.07l0.28,0.07v0.069h0.21v0.07h0.14V42h0.14V42.07h0.14v0.07l0.419,0.139v0.07h0.21v0.069H46v0.07h0.14v0.069h0.14v0.069L46.7,42.765v0.07h0.21V42.9h0.14v0.069h0.14v0.069h0.14v0.07l0.419,0.139v0.069h0.21v0.07H48.1v0.07h0.14v0.07h0.14V43.6L48.8,43.738v0.069h0.21v0.07h0.14v0.07h0.14v0.07h0.14v0.07l0.419,0.139v0.069h0.21v0.069H50.2v0.07h0.14V44.5h0.14v0.069L50.9,44.712v0.07h0.21v0.069h0.14v0.069h0.14v0.07h0.14v0.07L51.944,45.2v0.069h0.21v0.069h0.14v0.07h0.14v0.069h0.14v0.07l0.419,0.139v0.07H53.2v0.069ZM18.946,58.619L26.5,62.1V61.957a3.851,3.851,0,0,1-.419-1.113h-0.07l-0.07-.417h-0.07V60.288H25.8V60.08h-0.07l-0.07-.417h-0.07V59.523h-0.07l-0.14-.626h-0.07V58.758h-0.07l-0.07-.417c-0.665-1.508-1.155-3.22-1.818-4.728V53.4h-0.07l-0.07-.417h-0.07V52.848h-0.07V52.639H23l-0.07-.417h-0.07V52.083h-0.07l-0.14-.626h-0.07V51.318h-0.07l-0.14-.626H22.3V50.553h-0.07l-0.14-.626h-0.07V49.788h-0.07V49.58a4.521,4.521,0,0,1-.28-0.7l0.419,0.139v0.069H22.3v0.07L22.721,49.3v0.07h0.14V49.44l0.28,0.07v0.07h0.21v0.069h0.14v0.069h0.14v0.07l0.42,0.139V50h0.21v0.07l0.28,0.07v0.069l0.419,0.139v0.069H25.1v0.07h0.21v0.07h0.14v0.07h0.14v0.07l0.42,0.139V50.9h0.21V50.97h0.14v0.07H26.5v0.07h0.14v0.07l0.42,0.139v0.069h0.21v0.07h0.14v0.069h0.14V51.6l0.419,0.139V51.8h0.21v0.07l0.28,0.069v0.069l0.419,0.139v0.07h0.14v0.07h0.21v0.069h0.14v0.07H29.5V52.5h0.14V52.57l0.419,0.139v0.07h0.21v0.07h0.14v0.069h0.14v0.07l0.419,0.139V53.2h0.21v0.069l0.28,0.07V53.4l0.419,0.139v0.07h0.14v0.069h0.21v0.07h0.14v0.069h0.14v0.07l0.419,0.139V54.1h0.21v0.07h0.14v0.069h0.14v0.069h0.14v0.07l0.419,0.139v0.07h0.21v0.069h0.14v0.07h0.14v0.069l0.419,0.139V55H35.1v0.069h0.14v0.07h0.14v0.069h0.14v0.07l0.419,0.139v0.07h0.21v0.07h0.14v0.069h0.14V55.7h0.14v0.069l0.419,0.139v0.069h0.21v0.07h0.14v0.07h0.14v0.069l0.419,0.139v0.069H38.1v0.07h0.14v0.069h0.14V56.6h0.14v0.07l0.419,0.139v0.069l0.35,0.069a2.084,2.084,0,0,0,.559.278l-2.8-7.719c-0.174-.072-0.339-0.2-0.489-0.278h-0.14V49.162h-0.14v-0.07h-0.21V49.023l-0.28-.07v-0.07l-0.28-.069v-0.07l-0.28-.069V48.606h-0.21v-0.07h-0.14V48.467h-0.14V48.4h-0.14v-0.07l-0.419-.139V48.119h-0.21V48.05h-0.14V47.98H33.7V47.911h-0.14v-0.07L33.138,47.7V47.633h-0.21v-0.07h-0.14V47.493h-0.14v-0.07h-0.14V47.354l-0.419-.139v-0.07H31.88V47.076l-0.28-.07V46.937l-0.28-.07V46.8l-0.28-.07v-0.07h-0.21v-0.07l-0.419-.139V46.381h-0.14V46.311a2.444,2.444,0,0,1-.769-0.348c-1.32.531-2.766,0.969-4.055,1.53h-0.21v0.069l-0.419.07V47.7h-0.14v0.07h-0.21v0.07l-0.419.07V47.98H23.91v0.07l-0.419.069v0.069H23.35v0.07l-0.629.139v0.07h-0.14v0.069h-0.21a2.822,2.822,0,0,1-.769.278,2.192,2.192,0,0,0-.28-0.765l-0.07-.417h-0.07V47.493h-0.07l-0.14-.626H20.9V46.729h-0.07l-0.14-.626h-0.07V45.964h-0.07l-0.07-.417h-0.07V45.338h-0.07V45.2h-0.07V44.99H20.2V44.782h-0.07V44.573h-0.07V44.434h-0.07V44.225h-0.07V44.017h-0.07V43.808h-0.07l-0.07-.348h-0.07a0.56,0.56,0,0,0-.28-0.139V43.252h-0.14v-0.07h-0.14V43.113h-0.14v-0.07h-0.14V42.974H18.6V42.9h-0.14v-0.07h-0.14v-0.07h-0.14V42.7l-0.419-.139V42.487h-0.21v-0.07l-0.28-.069v-0.07h-0.14v-0.07h-0.14V42.139L16.569,42V41.931h-0.21v-0.07l-0.28-.069v-0.07H15.94v-0.07H15.8V41.583l-0.42-.139V41.374h-0.21V41.3l-0.28-.069v-0.07h-0.14V41.1h-0.14V41.027l-0.419-.139V40.818h-0.21v-0.07l-0.42-.139V40.54l-0.28-.07V40.4L13,40.331V40.262h-0.21V40.192h-0.14v-0.07c-0.165-.087-0.333-0.136-0.489-0.209v0.209h0.07L12.3,40.47h0.07v0.209h0.07v0.209h0.07v0.139h0.07l0.07,0.417h0.07v0.209c0.446,1.013.813,2.185,1.258,3.2l0.14,0.626c0.882,2,1.5,4.254,2.377,6.258l0.14,0.626h0.07V52.5h0.07l0.07,0.417h0.07v0.139h0.07v0.209h0.07l0.07,0.417H17.2v0.139h0.07l0.14,0.626h0.07v0.139h0.07l0.14,0.626h0.07v0.139h0.07l0.14,0.626h0.07v0.139h0.07l0.14,0.626h0.07v0.139h0.07l0.14,0.626H18.6v0.139h0.07v0.209A2.813,2.813,0,0,1,18.946,58.619Z"></path><path id="Color_Fill_1" data-name="Color Fill 1" class="cls-2" d="M51.175,38.315h-0.14l-0.14-.626h-0.07V37.55h-0.07l-0.14-.626h-0.07V36.785h-0.07l-0.14-.626h-0.07V36.02H50.2l-0.07-.417h-0.07V35.394h-0.07V35.255h-0.07V35.046h-0.07l-0.07-.417h-0.07V34.49h-0.07l-0.14-.626h-0.07V33.725h-0.07V33.517a2.852,2.852,0,0,1-.28-0.765,3.679,3.679,0,0,0-.7.278h-0.21V33.1h-0.14v0.07l-0.629.139v0.07H47.26v0.07l-0.629.139v0.069h-0.14v0.07l-0.629.139v0.07h-0.14V34l-0.629.139v0.069h-0.14v0.07l-0.629.139v0.07h-0.14v0.07l-0.629.139v0.069h-0.14v0.069l-0.629.139v0.07h-0.14v0.07l-0.419.069v0.07h-0.21v0.069h-0.14v0.069h-0.21v0.07h-0.21v0.069l-0.21.07V35.394a0.555,0.555,0,0,0,.14-0.278h0.07V34.977h0.07V34.838H41.6V34.7h0.07V34.49h0.07V34.351h0.07V34.212h0.07V34.073h0.07l0.14-.417h0.07V33.447h0.07V33.308H42.3V33.169h0.07V33.03h0.07l0.14-.417h0.07V32.4h0.07V32.265h0.07V32.126h0.07V31.987h0.07l0.14-.417h0.07V31.361h0.07V31.222h0.07V31.083h0.07V30.944h0.07l0.14-.417h0.07V30.318h0.07V30.179h0.07V30.04h0.07V29.9H43.9l0.14-.417h0.07V29.275h0.07L44.254,29h0.07l0.419-.974a1.5,1.5,0,0,0,.559-0.139v-0.07l0.629-.139V27.606h0.14v-0.07L46.7,27.4v-0.07h0.14v-0.07l0.629-.139V27.05h0.14V26.98l0.629-.139v-0.07h0.14V26.7l0.629-.139V26.493h0.14v-0.07l0.629-.139v-0.07h0.14V26.146l0.629-.139V25.937h0.14v-0.07l0.629-.139v-0.07h0.14V25.589l0.629-.139V25.381l0.489-.139v0.07h0.07l0.07,0.417h0.07v0.139h0.07l0.14,0.626h0.07v0.139h0.07L53.2,27.05h0.07v0.209h0.07V27.4h0.07v0.209h0.07l0.07,0.417h0.07v0.139h0.07l0.07,0.417h0.07v0.139H53.9l0.14,0.626a4.923,4.923,0,0,1,.559,1.6,0.546,0.546,0,0,0-.14.278h-0.07v0.139h-0.07V31.57h-0.07v0.139h-0.07v0.139h-0.07l-0.14.417H53.9v0.209h-0.07v0.139h-0.07v0.139h-0.07l-0.14.417h-0.07v0.209h-0.07v0.139h-0.07v0.139h-0.07l-0.14.417h-0.07v0.209h-0.07l-0.07.278h-0.07l-0.14.417h-0.07v0.139h-0.07v0.209H52.5v0.139h-0.07V35.6h-0.07l-0.14.417h-0.07v0.209h-0.07v0.139h-0.07v0.139h-0.07l-0.14.417h-0.07v0.209h-0.07v0.139A4.292,4.292,0,0,0,51.175,38.315ZM25.518,35.046l0.21,0.07v0.069h0.14v0.07h0.14v0.069h0.21v0.069l0.28,0.07v0.069l0.419,0.139v0.07l0.28,0.07v0.069l0.629,0.209v0.07h0.14v0.07l0.419,0.139v0.07h0.21v0.069l0.28,0.07v0.069h0.14v0.07h0.14v0.07l0.42,0.139v0.07h0.21v0.069l0.28,0.07V37.2l0.419,0.139v0.07l0.28,0.069v0.07h0.21v0.069l0.28,0.069v0.07c0.39,0.208,1.714.608,1.818,0.974h0.07l0.07,0.348h0.07v0.209h0.07V39.5h0.07v0.139h0.07l0.14,0.626H33.7V40.4h0.07l0.07,0.417h0.07v0.139h0.07l0.14,0.626h0.07v0.139h0.07v0.209h0.07l0.07,0.417h0.07v0.139h0.07V42.7h0.07l0.07,0.417c0.812,1.846,1.376,3.9,2.167,5.771H36.7a0.565,0.565,0,0,0-.28-0.139V48.676h-0.14V48.606h-0.14v-0.07h-0.21V48.467h-0.14V48.4h-0.14v-0.07h-0.14v-0.07L35.1,48.119V48.05h-0.21V47.98h-0.14V47.911h-0.14v-0.07h-0.14v-0.07l-0.419-.139v-0.07h-0.21V47.493H33.7v-0.07h-0.14V47.354h-0.14v-0.07L33,47.146V47.076h-0.21v-0.07l-0.28-.069v-0.07l-0.28-.069v-0.07l-0.28-.07v-0.07H31.74V46.52l-0.419-.139V46.311h-0.14v-0.07h-0.14v-0.07l-0.35-.07v-0.07h-0.14V45.964h-0.14v-0.07h-0.14V45.825l-0.419-.139V45.616c-0.318-.143-0.528-0.038-0.629-0.417h-0.07l-0.07-.417h-0.07V44.573h-0.07V44.434h-0.07l-0.14-.626h-0.07V43.669h-0.07l-0.14-.626h-0.07V42.9h-0.07l-0.07-.417c-0.447-1.013-.813-2.185-1.258-3.2V39.08h-0.07l-0.07-.417h-0.07V38.523h-0.07V38.315h-0.07l-0.07-.417H26.5V37.758h-0.07l-0.14-.626h-0.07V36.993h-0.07l-0.14-.626h-0.07V36.229h-0.07l-0.07-.417A2.537,2.537,0,0,1,25.518,35.046ZM58.027,50.762a2.152,2.152,0,0,0-.769.278l-0.419.07v0.07H56.7v0.069l-0.629.139v0.07h-0.14v0.069l-0.629.139v0.07H55.16V51.8l-0.629.139v0.069h-0.14v0.07h-0.21v0.069l-0.419.07v0.07h-0.14v0.069h-0.21v0.07l-0.419.069c-1.45.633-3.1,1.108-4.544,1.738h-0.21v0.069l-0.419.07v0.07H47.68v0.07H47.47v0.07l-0.419.069v0.07h-0.14v0.069l-0.629.139V55h-0.14v0.069l-0.629.139v0.07h-0.14v0.069l-0.629.139a5.62,5.62,0,0,1-1.538.556,1.806,1.806,0,0,1,.28-0.556V55.351h0.07V55.142h0.07V55h0.07V54.864h0.07V54.725h0.07l0.14-.417h0.07V54.1h0.07V53.96h0.07V53.821h0.07l0.14-.417h0.07V53.2h0.07V53.056H44.6V52.917h0.07V52.778h0.07l0.14-.417h0.07V52.152h0.07V52.013h0.07V51.874h0.07V51.735h0.07l0.14-.417h0.07V51.109h0.07V50.97h0.07V50.831h0.07V50.692h0.07l0.14-.417h0.07V50.066H46l0.07-.278h0.07V49.649h0.07l0.21-.626h0.07c0.088-.178.133-0.324,0.21-0.487a1.562,1.562,0,0,0,.559-0.209l0.419-.07v-0.07h0.14V48.119l0.629-.139V47.911h0.14v-0.07l0.629-.139V47.633h0.14v-0.07l0.629-.139V47.354h0.14v-0.07l0.629-.139V47.076H50.9v-0.07l0.629-.139V46.8h0.14v-0.07l0.629-.139V46.52h0.14V46.45l0.629-.139v-0.07a1.692,1.692,0,0,1,.559-0.139V45.964a2.919,2.919,0,0,1-1.049-.487h-0.21V45.407h-0.14v-0.07h-0.14V45.268h-0.14V45.2H51.8v-0.07l-0.28-.069V44.99h-0.21v-0.07L50.9,44.782v-0.07h-0.14V44.642l-0.28-.07V44.5h-0.21v-0.07l-0.419-.139V44.225h-0.14v-0.07h-0.14V44.086h-0.21v-0.07l-0.419-.139v-0.07H48.8V43.738l-0.28-.069V43.6h-0.21V43.53l-0.419-.139v-0.07H47.75V43.252l-0.28-.07V43.113H47.26v-0.07L46.841,42.9v-0.07H46.7v-0.07l-0.28-.069v-0.07h-0.21V42.556l-0.419-.139V42.348h-0.14v-0.07l-0.28-.07V42.139h-0.21V42.07l-0.419-.139v-0.07l-0.629-.209V41.583h-0.14v-0.07h-0.14V41.444c-0.154-.082-0.339-0.139-0.489-0.209v0.278a0.5,0.5,0,0,1,.14.348h0.07V42.07h0.07v0.209h0.07v0.139h0.07l0.07,0.417H43.9v0.209h0.07v0.139h0.07l0.07,0.417h0.07v0.209h0.07v0.139h0.07l0.07,0.417h0.07v0.209h0.07v0.139H44.6l0.14,0.626h0.07v0.139h0.07l0.14,0.626h0.07v0.139h0.07l0.07,0.417H45.3v0.209h0.07v0.139h0.07v0.209h0.07l0.07,0.417h0.07v0.139h0.07l0.14,0.626h0.07v0.139H46v0.209h0.07c0.019,0.141-.033.084-0.07,0.139a2.388,2.388,0,0,1-.35.7l-0.07.348h-0.07v0.139h-0.07v0.139h-0.07v0.139H45.3l-0.14.417h-0.07V50.97h-0.07l-0.07.278h-0.07v0.139h-0.07v0.139h-0.07l-0.14.417h-0.07v0.209h-0.07l-0.07.278h-0.07V52.57h-0.07v0.139h-0.07l-0.14.417h-0.07v0.209H43.9l-0.07.278h-0.07v0.139h-0.07v0.139h-0.07l-0.14.417h-0.07v0.209h-0.07l-0.07.278h-0.07v0.139h-0.07v0.139h-0.07l-0.14.417h-0.07V55.7h-0.07a2.749,2.749,0,0,0-.21.556h-0.14A2.716,2.716,0,0,0,42.3,55.7h-0.07V55.56h-0.07l-0.14-.626h-0.07V54.795h-0.07l-0.14-.626h-0.07V54.03H41.6l-0.14-.626h-0.07V53.265h-0.07l-0.14-.626h-0.07V52.5h-0.07V52.291h-0.07l-0.07-.417h-0.07V51.735h-0.07V51.527h-0.07l-0.07-.417c-0.445-1.013-.815-2.185-1.258-3.2V47.7H39.29l-0.07-.417H39.15V47.146h-0.07V46.937h-0.07l-0.07-.417h-0.07V46.381H38.8l-0.14-.626h-0.07V45.616h-0.07l-0.07-.417h-0.07V45.06h-0.07l-0.14-.626H38.1V44.295h-0.07l-0.07-.417a1.68,1.68,0,0,1-.28-0.834h0.07V42.9h0.07V42.7h0.07V42.556h0.07l0.14-.417h0.07l0.07-.278h0.07V41.652h0.07V41.513h0.07V41.374h0.07l0.14-.417h0.07V40.748H38.8V40.609h0.07V40.47h0.07V40.331h0.07l0.14-.417h0.07V39.705h0.07V39.566h0.07V39.427h0.07V39.288H39.5l0.14-.417h0.07V38.662h0.07V38.523h0.07V38.384h0.07V38.245h0.07l0.14-.417H40.2V37.619h0.07V37.48h0.07V37.341h0.07V37.2h0.07l0.14-.417h0.07V36.576h0.07V36.437h0.07V36.3a2.554,2.554,0,0,0,.35-0.7c0.08,0.079.028,0,.07,0.139h0.07l0.07,0.417h0.07V36.3h0.07l0.14,0.626h0.07v0.139h0.07l0.07,0.417h0.07v0.209h0.07v0.139h0.07l0.14,0.626c0.376,0.857.676,1.834,1.049,2.712l0.769-.209v-0.07h0.14V40.818l0.629-.139v-0.07h0.14V40.54l0.629-.139v-0.07h0.14V40.262l0.629-.139v-0.07h0.14v-0.07l0.629-.139v-0.07h0.14V39.705l0.629-.139V39.5h0.14V39.427l0.629-.139v-0.07H48.8V39.149l0.629-.139V38.94h0.14V38.871l0.629-.139a2.869,2.869,0,0,1,1.049-.348v0.07l0.28,0.07v0.069h0.14v0.07h0.21v0.069h0.14V38.8h0.14v0.07h0.14V38.94l0.419,0.139v0.069h0.21v0.069l0.28,0.07v0.069l0.28,0.07V39.5l0.28,0.07v0.07h0.21v0.069h0.14v0.069h0.14v0.07h0.14v0.069l0.419,0.139v0.07h0.21v0.07h0.14v0.069H55.3v0.069h0.14V40.4l0.419,0.139v0.07h0.21v0.07h0.14v0.069h0.14v0.07h0.14v0.069l0.419,0.139V41.1h0.21v0.07h0.14v0.07H57.4V41.3h0.14v0.07l0.419,0.139v0.07h0.21v0.069h0.14v0.07h0.14v0.07h0.14v0.069L59.005,42V42.07h0.21v0.07h0.14v0.069h0.14v0.07h0.14v0.07l0.419,0.139v0.069h0.21v0.069l0.28,0.07v0.069l0.979,0.417-0.28.765h-0.07v0.139H61.1v0.139h-0.07v0.139h-0.07v0.209h-0.07v0.139h-0.07v0.139h-0.07V44.99h-0.07v0.139h-0.07v0.139h-0.07l-0.07.348H60.4v0.139h-0.07v0.139h-0.07v0.139h-0.07l-0.14.417h-0.07v0.209h-0.07V46.8h-0.07v0.139h-0.07v0.139H59.7l-0.14.417h-0.07V47.7h-0.07v0.139h-0.07V47.98h-0.07v0.139h-0.07l-0.14.417h-0.07v0.209h-0.07v0.139h-0.07v0.139H58.8v0.139h-0.07l-0.14.417h-0.07v0.209h-0.07v0.139h-0.07v0.139h-0.07v0.139A2.019,2.019,0,0,0,58.027,50.762ZM21.6,48.745a1.326,1.326,0,0,0,.7-0.209l0.419-.069V48.4h0.14v-0.07l0.629-.139V48.119h0.14V48.05l0.629-.139v-0.07H24.4v-0.07l0.629-.139v-0.07h0.14V47.493l0.629-.139v-0.07h0.14v-0.07l0.629-.139v-0.07h0.14V46.937h0.21v-0.07l0.419-.069v-0.07h0.14v-0.07h0.21v-0.07L28.1,46.52V46.45h0.14V46.381h0.21V46.311l0.419-.07v-0.07h0.14V46.1c0.046-.02.559-0.139,0.559-0.139v0.069a1.833,1.833,0,0,1,.559.278l0.349,0.069V46.45h0.14v0.07h0.14v0.069H30.9v0.07L31.32,46.8v0.069h0.21v0.07h0.14v0.069h0.14v0.07h0.14v0.069l0.419,0.139v0.07h0.21v0.069h0.14v0.07h0.14v0.069H33v0.07l0.42,0.139v0.07h0.21v0.07h0.14V47.98h0.14v0.07h0.14v0.069l0.419,0.139v0.07h0.21V48.4h0.14v0.07l0.419,0.139v0.069l0.28,0.069v0.07h0.21v0.069h0.14v0.07H36a4.242,4.242,0,0,0,1.049.487,2.709,2.709,0,0,0,.14.556h0.07v0.139h0.07l0.14,0.626h0.07V50.9h0.07l0.14,0.626h0.07v0.139h0.07l0.14,0.626H38.1v0.139h0.07l0.14,0.626h0.07V53.2h0.07l0.14,0.626h0.07V53.96h0.07l0.14,0.626h0.07v0.139h0.07l0.14,0.626h0.07V55.49h0.07l0.14,0.626H39.5v0.139h0.07v0.209a2.791,2.791,0,0,1,.28.765l-0.769-.278V56.881h-0.14V56.811H38.8v-0.07l-0.28-.07V56.6h-0.21v-0.07h-0.14V56.464h-0.14v-0.07l-0.419-.139v-0.07H37.4V56.116h-0.14v-0.07h-0.14v-0.07h-0.14V55.907l-0.419-.139V55.7h-0.21v-0.07h-0.14V55.56h-0.14V55.49l-0.419-.139V55.282h-0.21v-0.07h-0.14V55.142h-0.14v-0.07h-0.14V55l-0.419-.139V54.795H34.4V54.725h-0.14v-0.07h-0.14V54.586L33.7,54.447v-0.07h-0.21v-0.07l-0.28-.069V54.169l-0.419-.139V53.96h-0.14v-0.07h-0.21v-0.07H32.3V53.752h-0.14v-0.07l-0.42-.139V53.474H31.53V53.4l-0.28-.07v-0.07l-0.419-.139V53.056h-0.14V52.987h-0.21v-0.07h-0.14V52.848H30.2v-0.07h-0.14v-0.07l-0.419-.139V52.5h-0.21V52.431h-0.14v-0.07h-0.14V52.291l-0.419-.139V52.083h-0.21v-0.07h-0.14V51.944h-0.14V51.874H28.1V51.8l-0.419-.139V51.6h-0.21V51.527h-0.14V51.457H27.2v-0.07l-0.419-.139V51.179h-0.21v-0.07h-0.14V51.04h-0.14V50.97h-0.14V50.9l-0.419-.139V50.692h-0.21v-0.07h-0.14v-0.07h-0.14v-0.07l-0.419-.139v-0.07h-0.21V50.205h-0.14V50.136h-0.14v-0.07h-0.14V50l-0.419-.139V49.788H23.56v-0.07l-0.419-.139V49.51L22.512,49.3V49.232h-0.14V49.162h-0.14v-0.07c-0.154-.082-0.339-0.139-0.489-0.209v0.278h0.07l0.07,0.348h0.07v0.209h0.07v0.209h0.07v0.139h0.07v0.209h0.07v0.209H22.3v0.209h0.07v0.139h0.07V51.04h0.07l0.07,0.417h0.07V51.6h0.07l0.14,0.626h0.07v0.139H23l0.14,0.626c0.555,1.26.985,2.7,1.538,3.963v0.209h0.07l0.07,0.417h0.07v0.139h0.07v0.209h0.07l0.07,0.417h0.07V58.48h0.07l0.14,0.626h0.07v0.139h0.07l0.14,0.626h0.07V60.01H25.8l0.14,0.626h0.07v0.139h0.07l0.07,0.417h0.07l0.28,0.9a1.8,1.8,0,0,1-.559-0.278l-0.35-.07V61.679h-0.14v-0.07h-0.14V61.54h-0.14V61.47l-0.419-.139V61.262h-0.21V61.192H24.4v-0.07h-0.14v-0.07H24.12v-0.07L23.7,60.844v-0.07H23.49V60.705H23.35V60.636h-0.14v-0.07h-0.14V60.5l-0.419-.139V60.288h-0.21v-0.07l-0.28-.069V60.08l-0.28-.07V59.94l-0.28-.069V59.8h-0.21V59.732l-0.419-.139V59.523h-0.14v-0.07h-0.14v-0.07l-0.35-.069v-0.07H20.2V59.176h-0.14V59.106h-0.14v-0.07l-0.42-.139v-0.07H19.3v-0.07c-0.239-.121-0.261.034-0.35-0.278h-0.07l-0.07-.348h-0.07V57.924h-0.07V57.715H18.6V57.507h-0.07V57.368h-0.07l-0.07-.417h-0.07V56.742c-0.447-1.013-.813-2.186-1.258-3.2l-0.14-.626h-0.07V52.778h-0.07l-0.14-.626h-0.07V52.013H16.5l-0.14-.626h-0.07V51.248H16.22l-0.14-.626c-0.853-1.938-1.457-4.111-2.307-6.05l-0.07-.417h-0.07V43.947h-0.07V43.808h-0.07l-0.07-.417h-0.07V43.182h-0.07V43.043h-0.07l-0.14-.626H13V42.278h-0.07l-0.14-.626h-0.07V41.513h-0.07l-0.07-.417h-0.07V40.887h-0.07V40.748h-0.07V40.54l-0.28-.626h0.14v0.07h0.21v0.07h0.14v0.07h0.14v0.07h0.14v0.069H13v0.069h0.14V40.4l0.28,0.069v0.07l0.35,0.07v0.07h0.14v0.069h0.14v0.07h0.14v0.069h0.14v0.07l0.28,0.069V41.1h0.21v0.07l0.28,0.07V41.3h0.14v0.07h0.14v0.069l0.42,0.139v0.069h0.21v0.07l0.42,0.139v0.07L16.709,42V42.07l0.28,0.07v0.069H17.2v0.07l0.419,0.139v0.07h0.14v0.069H17.9v0.069l0.35,0.07v0.069L18.666,42.9v0.069h0.14v0.069h0.14v0.07l0.28,0.069v0.07c0.282,0.128.4,0.025,0.489,0.348h0.07l0.07,0.417h0.07v0.139h0.07l0.14,0.626H20.2v0.139h0.07l0.07,0.417h0.07v0.139h0.07l0.14,0.626h0.07v0.139h0.07l0.14,0.626h0.07v0.139h0.07l0.14,0.626h0.07v0.139h0.07V47.98A2.81,2.81,0,0,1,21.6,48.745Z"></path></svg>