<svg xmlns="http://www.w3.org/2000/svg" width="191" height="26" viewBox="0 0 191 26"><defs><style>      .cls-1 {        fill: #fff;        fill-rule: evenodd;      }    </style></defs><path id="Color_Fill_2" data-name="Color Fill 2" class="cls-1" d="M184.554,0a6.834,6.834,0,0,1,1.766.1h0.239l1.146,0.383V0.527L187.9,0.575V0.622h0.1c0.016,0.032.032,0.064,0.047,0.1l0.287,0.1V0.862l0.143,0.048,0.048,0.1h0.095l0.048,0.1L188.8,1.149l0.191,0.239h0.1l0.334,0.383,0.191,0.144v0.1l0.191,0.144v0.1l0.144,0.1v0.1l0.095,0.048v0.1l0.1,0.048v0.1l0.095,0.048c0.032,0.1.064,0.192,0.095,0.287h0.048v0.1h0.048v0.1h0.048c0.032,0.1.063,0.192,0.095,0.287h0.048c0.032,0.144.064,0.287,0.095,0.431a4.42,4.42,0,0,1,.239,2.346V6.656H190.9V6.943h-0.047V7.134h-0.048V7.278h-0.048l-0.048.335h-0.047l-0.048.239H190.57v0.1h-0.048V8.092h-0.047l-0.048.192h-0.048l-0.048.192-0.095.048-0.048.192-0.095.048v0.1h-0.048L190,9l-0.1.048v0.1l-0.191.144v0.1l-0.382.335-0.382.431h-0.1l-0.143.191h-0.1c-0.015.032-.031,0.064-0.047,0.1l-0.144.048v0.048h-0.095l-0.048.1-0.191.048-0.048.1h-0.095v0.048l-0.191.048v0.048H187.61v0.048l-0.191.048v0.048l-1.194.335h-0.382a4.157,4.157,0,0,1-2.1-.191l-0.334-.048V11.109h-0.1V11.061h-0.143V11.013h-0.1V10.965H182.93V10.917l-0.191-.048V10.821l-0.191-.048-0.048-.1-0.191-.048c-0.015-.032-0.031-0.064-0.047-0.1l-0.191-.048-0.1-.144H181.88l-0.1-.144h-0.095L181.4,9.864h-0.095V9.816l-0.144-.1c-0.015-.048-0.031-0.1-0.047-0.144l-0.287-.239v-0.1l-0.143-.1L180.638,9l-0.095-.048v-0.1l-0.1-.048L180.4,8.619,180.3,8.571l-0.048-.192h-0.048v-0.1h-0.047L180.065,8h-0.048V7.853H179.97v-0.1h-0.048l-0.048-.287a4.8,4.8,0,0,1-.239-2.442V4.692h0.048V4.453h0.048V4.262h0.048V4.118h0.047l0.048-.335h0.048v-0.1h0.048q0.094-.287.191-0.575l0.095-.048,0.1-.287,0.095-.048,0.048-.192,0.095-.048v-0.1l0.144-.1V2.2l0.191-.144v-0.1l0.286-.239,0.334-.383h0.1l0.143-.192h0.1l0.095-.144h0.1c0.016-.032.032-0.064,0.047-0.1h0.1l0.048-.1,0.191-.048c0.016-.032.032-0.064,0.047-0.1h0.1V0.622h0.095V0.575h0.1V0.527l0.239-.048V0.431l0.191-.048V0.335h0.143V0.287H183.5V0.239h0.144V0.192h0.19V0.144h0.191V0.1A1.58,1.58,0,0,0,184.554,0Zm0.238,0.622a2.466,2.466,0,0,1-.62.1V0.766h-0.191V0.814h-0.144V0.862h-0.19V0.91h-0.1V0.958l-0.287.048V1.053l-0.286.1V1.2l-0.191.048-0.048.1-0.191.048V1.436l-0.143.048-0.048.1h-0.095l-0.144.192a4.852,4.852,0,0,0-1.575,2.059V3.974H180.5V4.118h-0.048V4.262H180.4V4.453h-0.047V4.645H180.3V4.884h-0.048V5.315h-0.048a3.4,3.4,0,0,0,.1,1.2l0.048,0.479H180.4l0.1,0.479h0.048v0.1h0.047V7.709h0.048L180.734,8h0.047v0.1h0.048l0.1,0.287h0.047l0.048,0.144,0.1,0.048v0.1l0.095,0.048,0.048,0.144L181.5,9.05v0.1l0.334,0.287,0.048,0.1h0.095l0.191,0.239h0.1c0.016,0.032.032,0.064,0.047,0.1l0.144,0.048V9.959h0.095l0.048,0.1h0.095l0.048,0.1L182.93,10.2v0.048l0.287,0.1V10.39h0.143v0.048h0.1v0.048H183.6v0.048h0.143v0.048h0.143V10.63h0.191v0.048h0.191v0.048h0.287v0.048h0.525a0.652,0.652,0,0,0,.334.048V10.774h0.573V10.726h0.334V10.678h0.191V10.63H186.7V10.582h0.144V10.534h0.143V10.486h0.143V10.438h0.1V10.39h0.143V10.343l0.191-.048V10.247l0.191-.048,0.048-.1,0.191-.048V10.007l0.143-.048,0.048-.1h0.095l0.1-.144h0.095l0.191-.239h0.1l0.191-.239,0.095-.048V9.1l0.239-.192V8.81l0.143-.1v-0.1l0.1-.048v-0.1l0.095-.048v-0.1l0.1-.048c0.016-.064.032-0.128,0.047-0.192h0.048l0.1-.287h0.048V7.661H190v-0.1h0.048V7.422h0.048V7.278h0.048V7.134h0.047V6.991h0.048l0.048-.479h0.047V6.033h0.048V5.363h-0.048V4.932h-0.047V4.645h-0.048V4.453h-0.048V4.262h-0.047V4.118h-0.048l-0.048-.287H190c-0.016-.064-0.032-0.128-0.047-0.192H189.9v-0.1h-0.048V3.4l-0.1-.048c-0.031-.1-0.063-0.192-0.095-0.287l-0.1-.048v-0.1H189.52l-0.048-.144-0.1-.048v-0.1l-0.191-.144A4.968,4.968,0,0,0,186.416.718h-0.239A5.327,5.327,0,0,0,184.792.622Zm-1.766,1.963c1.479-.02,2.766-0.162,3.39.718l0.143,0.1V3.5l0.1,0.048V3.687H186.7v0.1h0.048a2.453,2.453,0,0,1,0,1.341H186.7c-0.031.1-.063,0.192-0.095,0.287h-0.048v0.1l-0.143.1V5.7l-0.191.144-0.1.144a2.964,2.964,0,0,0-.477.287,1.207,1.207,0,0,1,.191.287l0.143,0.1v0.1l0.1,0.048c0.016,0.048.032,0.1,0.047,0.144l0.144,0.1v0.1l0.143,0.1v0.1l0.143,0.1v0.1l0.143,0.1v0.1l0.144,0.1V7.9l0.191,0.144v0.1l0.143,0.1v0.1l0.143,0.1v0.1l0.1,0.048c0.016,0.048.032,0.1,0.047,0.144h0.048l0.048,0.144h-1.1q-0.835-1.173-1.672-2.346h-0.764V8.188h0.048l0.048,0.67h-0.955a7.241,7.241,0,0,1-.048-1.772V3.208A1.6,1.6,0,0,1,183.026,2.586Zm1,0.766V5.746a2.477,2.477,0,0,0,1.337-.192l0.191-.239,0.1-.048v-0.1l0.1-.048a0.418,0.418,0,0,1,.095-0.192l0.048-.718C185.645,3.41,185.083,3.336,184.028,3.352ZM4.775,8.044a9.311,9.311,0,0,1,3.868.575L8.929,8.667V8.715h0.1V8.762H9.168V8.81h0.1V8.858h0.1V8.906h0.1V8.954h0.1V9h0.1V9.05h0.1l0.478,0.287L9.55,11.971V11.923h-0.1l-0.048-.1h-0.1l-0.048-.1h-0.1l-0.048-.1h-0.1l-0.048-.1-0.287-.1V11.4H8.6l-0.048-.1-0.239-.048V11.2h-0.1V11.157l-0.191-.048V11.061H7.879V11.013h-0.1V10.965H7.64V10.917H7.5V10.869H7.354V10.821H7.163V10.774H6.972V10.726H6.781V10.678H6.542V10.63H6.255V10.582H5.778V10.534H5.109v0.048H4.823a2.687,2.687,0,0,0-1.289.91l-0.1.287H3.39v0.1H3.343a3.08,3.08,0,0,0-.048,1.005H3.343L3.39,13.168H3.438l0.048,0.191,0.1,0.048v0.1l0.143,0.1v0.1l0.1,0.048,0.191,0.239h0.1L4.25,14.173h0.1l0.1,0.144h0.1l0.048,0.1h0.1l0.048,0.1h0.1v0.048h0.1l0.048,0.1L5.157,14.7,5.2,14.8l0.287,0.1,0.048,0.1h0.1v0.048h0.1v0.048h0.1v0.048h0.1v0.048h0.1v0.048l0.191,0.048,0.048,0.1h0.1v0.048h0.1v0.048h0.1v0.048h0.1v0.048h0.1l0.048,0.1h0.1v0.048h0.1v0.048h0.1V15.8h0.1L7.21,15.9l0.286,0.1v0.048L7.64,16.088l0.048,0.1,0.191,0.048,0.048,0.1h0.1l0.048,0.1h0.1l0.1,0.144h0.1l0.048,0.1H8.5l0.143,0.192h0.1l0.191,0.239h0.1l0.287,0.335,0.143,0.1v0.1l0.239,0.192v0.1L9.837,18v0.1l0.1,0.048v0.1l0.1,0.048,0.1,0.287h0.048l0.1,0.287h0.048v0.144h0.048v0.1H10.41l0.048,0.335a3.651,3.651,0,0,1,.143,1.82v0.383H10.553v0.239H10.505v0.239H10.457v0.192H10.41v0.144H10.362V22.6H10.314l-0.048.239H10.219v0.1H10.171v0.144H10.123v0.1H10.075v0.1l-0.1.048-0.1.287H9.837l-0.048.144-0.1.048v0.1L9.5,24.037a4.969,4.969,0,0,1-2.578,1.724H6.733v0.048H6.494v0.048H6.255V25.9H5.826v0.048L4.107,25.9V25.856H3.772V25.809H3.486V25.761H3.247V25.713H3.056V25.665H2.865V25.617H2.722V25.569l-0.478-.1V25.425h-0.1V25.378H2.006V25.33H1.91V25.282H1.767V25.234l-0.191-.048V25.138H1.433V25.09l-0.191-.048V24.995h-0.1L1.1,24.9l-0.286-.1-0.048-.1h-0.1V24.659h-0.1l-0.048-.1H0.43l-0.1-.144C0.294,24.391.011,24.249,0,24.228V23.654a1.675,1.675,0,0,0,.048-0.527H0.1V22.6H0.143V22.074H0.191l0.048-.814H0.287L0.43,21.451h0.1l0.191,0.239h0.1l0.143,0.192h0.1l0.048,0.1h0.1l0.1,0.144h0.1l0.048,0.1,0.143,0.048v0.048l1.432,0.718H3.152v0.048H3.295v0.048l0.334,0.048v0.048H3.82v0.048H4.059v0.048H4.345v0.048H4.871v0.048H5.253V23.367H5.635V23.319H5.826V23.271l0.287-.048V23.175l0.287-.1V23.031h0.1l0.048-.1h0.1L6.924,22.6l0.191-.144,0.048-.192,0.1-.048a2.651,2.651,0,0,0,.191-1.245,2.309,2.309,0,0,0-1-1.341l-0.1-.144h-0.1l-0.1-.144h-0.1l-0.048-.1L5.826,19.2l-0.048-.1-0.143-.048V19.009h-0.1V18.961h-0.1V18.913h-0.1l-0.048-.1-0.287-.1-0.048-.1h-0.1V18.578h-0.1V18.53H4.68V18.483h-0.1V18.435h-0.1l-0.048-.1h-0.1V18.291H4.25V18.243h-0.1V18.2h-0.1l-0.048-.1L3.725,18l-0.048-.1-0.287-.1-0.048-.1h-0.1V17.669h-0.1l-0.048-.1h-0.1l-0.048-.1h-0.1l-0.048-.1h-0.1V17.333l-0.143-.048-0.048-.1h-0.1l-0.1-.144h-0.1L2.1,16.855h-0.1l-0.286-.335h-0.1l-0.048-.1-0.143-.1v-0.1L1.1,15.945v-0.1l-0.143-.1v-0.1l-0.1-.048v-0.1l-0.1-.048v-0.1H0.716v-0.1H0.669v-0.1H0.621v-0.1H0.573v-0.1H0.525L0.478,14.8H0.43V14.652H0.382V14.508H0.334V14.317H0.287V14.125H0.239V13.886H0.191V13.407H0.143V12.832H0.191V12.354H0.239V12.066H0.287V11.827H0.334V11.683H0.382V11.492H0.43V11.348H0.478l0.048-.239H0.573v-0.1H0.621V10.869H0.669v-0.1H0.716v-0.1l0.1-.048,0.1-.287H0.955L1,10.2l0.1-.048v-0.1l0.191-.144v-0.1l0.287-.239L1.91,9.193h0.1L2.1,9.05,2.244,9l0.048-.1h0.1l0.048-.1,0.287-.1,0.048-.1h0.1V8.571h0.1V8.523H3.1V8.475H3.2V8.427l0.239-.048V8.331l0.334-.048V8.236H3.916V8.188H4.154V8.14H4.393V8.092H4.775V8.044ZM31.038,8.092a10.014,10.014,0,0,1,3.2.335l0.621,0.144V8.619L35.1,8.667V8.715h0.1V8.762h0.143V8.81l0.286,0.1V8.954h0.1V9L36,9.1V9.145l0.143,0.048,0.048,0.1,0.191,0.048,0.1,0.144h0.1l0.048,0.1h0.1l0.191,0.239h0.1l0.43,0.479,0.286,0.239v0.1l0.191,0.144v0.1l0.143,0.1v0.1l0.143,0.1v0.1L38.3,11.3v0.1h0.048v0.1l0.1,0.048,0.048,0.191,0.1,0.048,0.048,0.191h0.048l0.1,0.287h0.048V12.4h0.048l0.048,0.191h0.048v0.144h0.048v0.1H39.06v0.144h0.048V13.12h0.048v0.144H39.2v0.144h0.048V13.6a9.333,9.333,0,0,1,.43,3.065v1.149H39.633v0.431H39.585v0.335H39.537l-0.1.718H39.394v0.191H39.346l-0.048.335H39.251v0.144H39.2v0.144H39.155l-0.048.287H39.06v0.1H39.012v0.144H38.964v0.1H38.916v0.144H38.869l-0.1.287H38.725v0.1H38.678v0.1H38.63v0.1H38.582v0.1H38.534v0.1H38.487v0.1H38.439v0.1l-0.1.048-0.048.192-0.1.048v0.1H38.152l-0.048.144-0.1.048v0.1l-0.143.1v0.1l-0.143.1v0.1l-0.191.144v0.1l-0.573.527-0.382.431h-0.1l-0.143.191h-0.1l-0.1.144h-0.1l-0.048.1h-0.1l-0.1.144h-0.1l-0.048.1-0.191.048-0.048.1h-0.1v0.048h-0.1v0.048h-0.1v0.048h-0.1V25.09h-0.1v0.048h-0.1v0.048l-0.287.1V25.33H34.428v0.048h-0.1v0.048H34.189v0.048h-0.1v0.048l-0.334.048v0.048H33.616v0.048H33.425v0.048H33.234v0.048H33.043v0.048H32.8v0.048H32.47V25.9H31.993v0.048a4.711,4.711,0,0,1-1.241-.048H30.226V25.856H29.939V25.809H29.653l-1.194-.335V25.425l-0.239-.048V25.33h-0.1V25.282H27.982V25.234l-0.287-.1V25.09L27.5,25.042l-0.048-.1-0.287-.1-0.048-.1h-0.1l-0.048-.1h-0.1l-0.1-.144h-0.1l-0.1-.144H26.5l-0.191-.239h-0.1L25.833,23.7l-0.239-.192v-0.1l-0.239-.192v-0.1l-0.143-.1v-0.1l-0.143-.1v-0.1l-0.1-.048L24.926,22.5l-0.1-.048-0.048-.144H24.735v-0.1H24.687v-0.1H24.639v-0.1H24.591v-0.1H24.544v-0.1H24.5v-0.1H24.448v-0.1H24.4l-0.1-.287H24.257V21.212H24.209v-0.1H24.162V20.972H24.114v-0.1H24.066l-0.43-1.628V18.961A7.61,7.61,0,0,1,23.493,17V16.232h0.048q0.024-.383.048-0.766h0.048V15.179h0.048V14.939h0.048V14.748H23.78V14.556h0.048V14.365h0.048V14.221h0.048l0.1-.479h0.048v-0.1h0.048l0.048-.287h0.048l0.048-.191H24.3V13.024h0.048l0.1-.287H24.5v-0.1h0.048v-0.1h0.048l0.1-.287,0.1-.048,0.048-.191h0.048l0.048-.144,0.1-.048v-0.1h0.048l0.048-.144,0.1-.048v-0.1l0.143-.1v-0.1l0.1-.048,0.048-.144,0.239-.192v-0.1l0.287-.239,0.43-.479h0.1l0.191-.239h0.1l0.048-.1h0.048l0.048-.1h0.1l0.048-.1h0.1l0.048-.1,1.289-.718H28.7V8.667h0.1V8.619l0.239-.048V8.523l1.289-.335A2.9,2.9,0,0,0,31.038,8.092Zm132.65,17.525v-14.8h-0.048V10.486h-0.048V10.1h-0.047V9.768a5.806,5.806,0,0,1-.191-1.436l3.1-.048a5.88,5.88,0,0,1,1.29-.048,9.206,9.206,0,0,1,2.817.287l0.812,0.192V8.762h0.095V8.81h0.143V8.858l0.287,0.1V9l0.191,0.048,0.048,0.1,0.191,0.048c0.016,0.032.032,0.064,0.047,0.1h0.1l0.1,0.144a3.357,3.357,0,0,1,1.241,1.676V11.3h0.048v0.191h0.047v0.335h0.048a2.39,2.39,0,0,1-.095,1.053l-0.048.383h-0.048l-0.048.239h-0.047v0.1h-0.048v0.144h-0.048v0.1h-0.048v0.1l-0.095.048-0.1.287-0.095.048v0.1l-0.1.048v0.1l-0.143.1v0.1l-0.143.1v0.1l-0.191.144v0.1l-0.716.67V15.9H172a1.891,1.891,0,0,0,.478.239l0.048,0.1,0.191,0.048,0.048,0.1h0.095v0.048L173,16.472l0.048,0.1h0.095l0.144,0.192h0.095l0.239,0.287,0.43,0.383v0.1l0.191,0.144v0.1l0.095,0.048L174.383,18l0.095,0.048,0.048,0.191h0.048c0.032,0.1.064,0.192,0.095,0.287h0.048l0.048,0.287a5.2,5.2,0,0,1-.1,3.352c-0.015.1-.031,0.192-0.047,0.287h-0.048l-0.1.287h-0.047v0.1h-0.048l-0.1.287-0.095.048v0.1l-0.1.048v0.1l-0.143.1v0.1l-0.239.192-0.477.527h-0.1c-0.031.048-.063,0.1-0.095,0.144h-0.1c-0.015.032-.031,0.064-0.047,0.1h-0.1c-0.016.032-.032,0.064-0.047,0.1l-0.287.1-0.048.1H172.33V24.9l-0.191.048v0.048H172v0.048H171.9V25.09l-0.287.048v0.048H171.47v0.048h-0.143v0.048h-0.143V25.33l-0.382.048v0.048h-0.239v0.048h-0.287v0.048h-0.334v0.048l-2.053.048h-4.2ZM53.767,8.331H63.7v2.634h-6.16v4.5h5.443L62.314,18a4.583,4.583,0,0,1-1.241.048H57.539V23.51h0.048v0.383h0.048v0.383h0.048v0.383a4.292,4.292,0,0,1,.143.958H54.149V10.869Zm21.583,0H89.722v2.681H84.136v12.4h0.048V23.8h0.048v0.383a6.238,6.238,0,0,1,.191,1.436H80.745v-14.6h-5.4V8.331Zm25.546,0h4.154a1.858,1.858,0,0,0,.095.383h0.048v0.1h0.048L105.289,9.1h0.048V9.241h0.047V9.385h0.048V9.529h0.048v0.1h0.047V9.768h0.048V9.912h0.048v0.144h0.048V10.2h0.047l0.048,0.287h0.048v0.1h0.048v0.144h0.047l0.048,0.287h0.048c0.032,0.144.064,0.287,0.095,0.431h0.048v0.1H106.2l0.048,0.287h0.047v0.144h0.048v0.144h0.048v0.144h0.048V12.4h0.047v0.1h0.048l0.048,0.287h0.048c0.032,0.144.063,0.287,0.095,0.431,0.526,1.2.861,2.581,1.385,3.783v0.144h0.048v0.144H108.2v0.144h0.048v0.144H108.3v0.144h0.048v0.1h0.047l0.1,0.431h0.048v0.144h0.048V18.53h0.047v0.144h0.048v0.1h0.048c0.016,0.1.032,0.192,0.047,0.287h0.048v0.192c0.071,0.214.126,0.55,0.191,0.766V20.3h0.048v0.287h0.048a1.284,1.284,0,0,0,.095.479,2.933,2.933,0,0,1,.239-0.91c0.064-.3.127-0.607,0.191-0.91h0.048c0.016-.1.032-0.192,0.047-0.287h0.048v-0.1h0.048V18.722h0.048v-0.1h0.047V18.483h0.048v-0.1h0.048V18.243h0.048v-0.1h0.047V18h0.048v-0.1h0.048V17.764h0.048c0.016-.08.032-0.16,0.047-0.239h0.048v-0.1H110.4V17.286h0.048v-0.1h0.047V17.046h0.048v-0.1h0.048l0.048-.287h0.047l0.048-.239h0.048v-0.1h0.048V16.184h0.047v-0.1h0.048V15.945h0.048v-0.1h0.048V15.705h0.047v-0.1h0.048V15.466h0.048v-0.1h0.048V15.227h0.047l0.048-.239h0.048v-0.1H111.4V14.748h0.047v-0.1H111.5V14.508h0.048v-0.1h0.048c0.016-.1.032-0.191,0.047-0.287h0.048l0.048-.239h0.048v-0.1h0.048V13.646h0.047v-0.1h0.048a1.94,1.94,0,0,0-.143-0.574h-0.048l-0.048-.287h-0.048v-0.1h-0.047l-0.1-.431h-0.048v-0.1H111.4l-0.048-.287h-0.048v-0.1h-0.048c-0.015-.1-0.031-0.191-0.047-0.287h-0.048V11.3h-0.048l-0.048-.287h-0.047v-0.1h-0.048l-0.1-.431h-0.047v-0.1H110.78l-0.048-.287h-0.048v-0.1h-0.047l-0.048-.287h-0.048v-0.1h-0.048c-0.031-.144-0.063-0.287-0.095-0.431H110.35V9.1H110.3c-0.015-.1-0.031-0.192-0.047-0.287h-0.048v-0.1h-0.048a2.137,2.137,0,0,1-.1-0.383h3.724a1.861,1.861,0,0,0,.1.383h0.047v0.1h0.048L114.027,9.1h0.048V9.241h0.047V9.385h0.048V9.529h0.048V9.672h0.048v0.1h0.047V9.912h0.048v0.144h0.048V10.2h0.048v0.144c0.084,0.209.2,0.461,0.286,0.67l0.1,0.431h0.047v0.1h0.048l0.048,0.287h0.048v0.144h0.048v0.144h0.047v0.144h0.048V12.4h0.048v0.1h0.047l0.1,0.431h0.048c0.032,0.144.063,0.287,0.095,0.431,0.525,1.2.861,2.58,1.385,3.783v0.144h0.048v0.144h0.047v0.144h0.048v0.144h0.048V17.86h0.048v0.1h0.047l0.1,0.431h0.048V18.53h0.047v0.144h0.048v0.144h0.048v0.1h0.048v0.144h0.047v0.192h0.048v0.239h0.048v0.287H117.7v0.287h0.047V20.3H117.8v0.287h0.048a1.15,1.15,0,0,0,.095.479q0.1-.455.191-0.91h0.048V19.967h0.048V19.775h0.048V19.584h0.047V19.44h0.048V19.249h0.048V19.105h0.048V18.961h0.047V18.818h0.048v-0.1h0.048l0.048-.287h0.047v-0.1h0.048l0.048-.287h0.048V17.908H118.9v-0.1h0.048V17.669h0.048V17.525h0.048v-0.1h0.047l0.048-.287h0.048v-0.1h0.048c0.032-.144.063-0.287,0.095-0.431h0.048v-0.1h0.048c0.016-.1.032-0.192,0.047-0.287h0.048v-0.1h0.048c0.032-.144.064-0.287,0.095-0.431,0.612-1.4,1.062-2.958,1.672-4.357,0.032-.144.063-0.287,0.095-0.431h0.048v-0.1h0.048c0.016-.1.032-0.192,0.047-0.287h0.048v-0.1h0.048c0.032-.144.064-0.287,0.095-0.431h0.048v-0.1h0.048l0.048-.287h0.047v-0.1H122l0.048-.287H122.1v-0.1h0.047V9q0.144-.335.287-0.67h3.247L118.8,25.952l-2.388-.527q-1.479-3.974-2.96-7.948c-0.054.055-.019,0-0.048,0.1h-0.048c-0.015.08-.031,0.16-0.047,0.239h-0.048v0.144h-0.048v0.1h-0.048V18.2H113.12v0.1h-0.048v0.144h-0.048v0.1h-0.048c-0.015.08-.031,0.16-0.047,0.239h-0.048v0.144h-0.048v0.1h-0.048v0.144h-0.047v0.1H112.69v0.144h-0.048v0.1h-0.048v0.144h-0.047v0.1H112.5v0.144h-0.048v0.1H112.4c-0.015.1-.031,0.192-0.047,0.287h-0.048v0.1H112.26v0.144h-0.048c-0.015.08-.031,0.16-0.047,0.239h-0.048v0.1h-0.048v0.144h-0.048c-0.015.08-.031,0.16-0.047,0.239h-0.048v0.1h-0.048v0.144h-0.047v0.1h-0.048v0.144h-0.048v0.1h-0.048V21.93h-0.048v0.1h-0.047v0.144h-0.048v0.1H111.5v0.144h-0.048v0.1H111.4v0.144h-0.048v0.1h-0.048v0.144h-0.048v0.1H111.21v0.144h-0.048v0.1h-0.048c-0.095.287-.191,0.575-0.286,0.862H110.78v0.1h-0.048l-0.048.239h-0.047v0.144h-0.048v0.1h-0.048V24.8h-0.048v0.1h-0.047v0.144H110.4v0.1H110.35v0.144a3.707,3.707,0,0,0-.286.67l-2.388-.527a1.461,1.461,0,0,0-.143-0.335V24.947h-0.048v-0.1h-0.047l-0.048-.287h-0.048v-0.1h-0.048c-0.032-.144-0.063-0.287-0.095-0.431h-0.048v-0.1H107.1l-0.048-.287h-0.047v-0.1H106.96l-0.048-.287h-0.048v-0.1h-0.047l-0.048-.287h-0.048V22.744h-0.048v-0.1h-0.047l-0.048-.287H106.53v-0.1h-0.048c-0.015-.1-0.031-0.192-0.047-0.287h-0.048v-0.1h-0.048c-0.032-.144-0.063-0.287-0.095-0.431H106.2v-0.1h-0.048l-0.048-.287h-0.047v-0.1h-0.048l-0.048-.287h-0.048v-0.1h-0.047V20.446h-0.048V20.3h-0.048v-0.1h-0.048c-0.031-.144-0.063-0.287-0.095-0.431h-0.048v-0.1h-0.048c-0.015-.1-0.031-0.192-0.047-0.287h-0.048V19.3h-0.048V19.153h-0.047l-0.048-.287c-0.72-1.646-1.241-3.477-1.958-5.123l-0.1-.431h-0.047v-0.1H103.14l-0.048-.287h-0.048v-0.1H103l-0.048-.287H102.9v-0.1h-0.048c-0.031-.144-0.063-0.287-0.095-0.431H102.71v-0.1h-0.048c-0.015-.1-0.031-0.192-0.047-0.287h-0.048l-0.1-.287h-0.047v-0.1h-0.048l-0.048-.191-0.095-.048v-0.1h-0.048v-0.1h-0.048v-0.1H102.09v-0.1h-0.048v-0.1h-0.048v-0.1h-0.048v-0.1H101.9v-0.1h-0.047l-0.048-.192-0.1-.048q-0.166-.383-0.334-0.766h-0.048c-0.015-.064-0.031-0.128-0.047-0.192L101.182,9l-0.048-.192A1.777,1.777,0,0,1,100.9,8.331Zm38.1,0h9.885v2.634h-6.16v4.5h5.443q-0.142.623-.286,1.245h-0.048l-0.1.575a2.915,2.915,0,0,0-.191.766h-4.822v4.98h4.2a14.567,14.567,0,0,0,2.292-.048,2.91,2.91,0,0,1-.191.718v0.192c-0.1.289-.188,0.669-0.287,0.958v0.192h-0.047v0.191h-0.048l-0.048.335H148.55a1.474,1.474,0,0,1-.668.048h-8.548V10.774h-0.047V10.438h-0.048V10.055h-0.048V9.72A5.81,5.81,0,0,1,139,8.331ZM31.085,10.63a1.672,1.672,0,0,1-.477.1v0.048H30.465v0.048H30.321v0.048H30.178v0.048l-0.191.048v0.048H29.844l-0.048.1-0.191.048-0.048.1h-0.1l-0.048.1h-0.1l-0.143.191a5.566,5.566,0,0,0-1.767,2.825v0.192H27.361v0.191H27.313v0.191H27.265v0.239H27.218v0.287H27.17v0.383H27.122v0.527H27.074a4.754,4.754,0,0,0,.048,1.245V18.2H27.17V18.53c0.066,0.226.12,0.548,0.191,0.766v0.191a5.73,5.73,0,0,0,1.91,3.064l0.1,0.144h0.1l0.048,0.1h0.1l0.048,0.1,0.191,0.048v0.048l0.286,0.1v0.048h0.143v0.048h0.1v0.048l0.573,0.1v0.048l0.86,0.048V23.367l0.668-.048V23.271h0.191V23.223H32.8V23.175h0.143V23.127h0.1V23.079h0.143V23.031l0.191-.048V22.936h0.1l0.048-.1h0.1l0.048-.1h0.1l0.048-.1h0.1l0.143-.192a5.563,5.563,0,0,0,1.719-2.777l0.287-1.437V17.669H36.1V16.95a6.6,6.6,0,0,0-.191-1.772V14.891H35.86V14.7H35.813V14.508H35.765V14.317H35.717V14.173H35.669V14.03H35.622l-0.048-.287H35.526v-0.1H35.478V13.5H35.431l-0.1-.287H35.287v-0.1H35.24v-0.1H35.192l-0.1-.287L35,12.689v-0.1H34.953l-0.048-.144-0.1-.048v-0.1l-0.143-.1v-0.1l-0.239-.191L34,11.444H33.9l-0.1-.144h-0.1l-0.048-.1h-0.1l-0.048-.1-0.191-.048V11.013l-0.287-.1V10.869H32.9V10.821A5.068,5.068,0,0,0,31.085,10.63Zm135.992,0.144v4.357h1.528v0.048h0.669v0.048l0.716,0.048c0.052-.1.139-0.2,0.191-0.287v-0.1l0.095-.048V14.7h0.048V14.6h0.048l0.048-.192h0.048q0.143-.5.286-1.005V12.976H170.8V12.593h-0.048V12.162h-0.048V11.971h-0.047V11.827h-0.048l-0.048-.191h-0.048v-0.1l-0.286-.239-0.1-.144-0.191-.048-0.048-.1h-0.143V10.965h-0.095V10.917h-0.191A7.762,7.762,0,0,0,167.077,10.774Zm0,6.9v5.411a7.531,7.531,0,0,0,1.767-.048l0.764-.048V22.936l0.43-.1V22.792h0.095V22.744l0.287-.1,0.048-.1h0.095l0.048-.1h0.095l0.191-.239,0.1-.048v-0.1l0.143-.1v-0.1h0.048v-0.1h0.047v-0.1h0.048v-0.1h0.048V21.5h0.048V21.355h0.047V21.212h0.048V20.972a2.381,2.381,0,0,0,.048-1.053,2.575,2.575,0,0,0-.1-0.622h-0.047V19.2h-0.048V19.057l-0.1-.048c-0.015-.064-0.031-0.128-0.047-0.192l-0.144-.1v-0.1l-0.095-.048-0.143-.192h-0.1l-0.095-.144L170.42,18.2l-0.048-.1-0.239-.048V18h-0.095V17.956l-0.239-.048V17.86h-0.191A8.557,8.557,0,0,0,167.077,17.669Z"></path></svg>